# xmcd
#
# Track frame offsets:
#	150
#	21760
#	38030
#	54450
#	77245
#	82102
#	95710
#	107055
#	118580
#	138687
#	154250
#	168357
#	180220
#	191702
#	205515
#	227895
#	246037
#	264072
#
# Disc length: 3844 seconds
#
# Revision: 0
# Processed by: cddbd v1.4PL0 Copyright (c) Steve Scherf et al.
# Submitted via: dBpowerAMP V4.0
#
DISCID=ea0f0212
DTITLE=Dianna Pequeno - Cantigas
DYEAR=2003
DGENRE=Blues
TTITLE0=Flores Do Mal
TTITLE1=Azul
TTITLE2=Reza
TTITLE3=Maria
TTITLE4=Por que lloras morenita
TTITLE5=Cantigas
TTITLE6=A morena
TTITLE7=O sol em si
TTITLE8=Ontem ao luar
TTITLE9=A casinha pequenina
TTITLE10=Lua Branca
TTITLE11=Semanário
TTITLE12=Não vai, morena
TTITLE13=Prenda minha
TTITLE14=Balada do rei das sereias
TTITLE15=O trenzinho do caipira
TTITLE16=Samba clássico
TTITLE17=Quem sabe
EXTD=
EXTT0=
EXTT1=
EXTT2=
EXTT3=
EXTT4=
EXTT5=
EXTT6=
EXTT7=
EXTT8=
EXTT9=
EXTT10=
EXTT11=
EXTT12=
EXTT13=
EXTT14=
EXTT15=
EXTT16=
EXTT17=
PLAYORDER=
